<svg xmlns="http://www.w3.org/2000/svg" version="1.1" xmlns:xlink="http://www.w3.org/1999/xlink" xmlns:svgjs="http://svgjs.dev/svgjs" width="2000" height="1500" viewBox="0 0 2000 1500"><rect width="2000" height="1500" fill="#010536"></rect><g transform="matrix(0.75,0,0,0.75,249.090909090909,281.15111931050535)"><svg viewBox="0 0 396 247" data-background-color="#010536" preserveAspectRatio="xMidYMid meet" height="1247" width="2000" xmlns="http://www.w3.org/2000/svg" xmlns:xlink="http://www.w3.org/1999/xlink"><g id="tight-bounds" transform="matrix(1,0,0,1,0.2400000000000091,0.3232275116868948)"><svg viewBox="0 0 395.52 246.3535449766262" height="246.3535449766262" width="395.52"><g><svg viewBox="0 0 396.87898142190954 247.2" height="246.3535449766262" width="395.52"><g transform="matrix(1,0,0,1,195.7432772967317,0)"><svg viewBox="0 0 201.13570412517782 247.2" height="247.2" width="201.13570412517782"><g id="textblocktransform"><svg viewBox="0 0 201.13570412517782 247.2" height="247.2" width="201.13570412517782" id="textblock"><g><svg viewBox="0 0 201.13570412517782 247.2" height="247.2" width="201.13570412517782"><g transform="matrix(1,0,0,1,0,0)"><svg width="201.13570412517782" viewBox="1.5999999999999999 -35.05 28.599999999999998 35.15" height="247.2" data-palette-color="#fbfbf8"><path d="M16.3 0.1L16.3 0.1Q14.55 0.1 12.68 0.03 10.8-0.05 9.35-0.05L9.35-0.05Q8.55-0.05 7.1-0.03 5.65 0 4.15 0.03 2.65 0.05 1.65 0.05L1.65 0.05Q1.55-0.7 1.65-1.55L1.65-1.55Q4-1.8 5-2.02 6-2.25 6.25-3.03 6.5-3.8 6.5-5.55L6.5-5.55 6.5-28.8Q6.5-30.9 6.25-31.8 6-32.7 4.98-32.98 3.95-33.25 1.65-33.45L1.65-33.45Q1.55-34.2 1.65-35.05L1.65-35.05Q2.7-35.05 4.15-35.02 5.6-35 7.03-34.98 8.45-34.95 9.4-34.95L9.4-34.95Q10.95-34.95 12.98-35 15-35.05 16.2-35.05L16.2-35.05Q22.3-35.05 25.25-33.05 28.2-31.05 28.2-27.25L28.2-27.25Q28.2-20.9 20.35-18.65L20.35-18.65 20.35-18.6Q23.05-18.4 25.28-17.35 27.5-16.3 28.85-14.4 30.2-12.5 30.2-9.7L30.2-9.7Q30.2-6.15 28.05-3.78 25.9-1.4 22.7-0.55L22.7-0.55Q21.3-0.2 19.7-0.05 18.1 0.1 16.3 0.1ZM14.95-17.05L14.95-17.05Q14.35-17.05 13.58-17.03 12.8-17 12-16.9L12-16.9 12-5.8Q12-4.55 12-3.7 12-2.85 12.05-2.3L12.05-2.3Q14.25-1.85 16-1.85L16-1.85Q19.85-1.85 21.98-3.78 24.1-5.7 24.1-9.65L24.1-9.65Q24.1-13.5 21.9-15.28 19.7-17.05 14.95-17.05ZM12-32.75L12-19.1Q12.4-19.05 12.73-19.05 13.05-19.05 13.35-19.05L13.35-19.05Q18.15-19.05 20.18-20.78 22.2-22.5 22.2-26L22.2-26Q22.2-33 14.95-33L14.95-33Q14.2-33 13.53-32.93 12.85-32.85 12-32.75L12-32.75Z" opacity="1" transform="matrix(1,0,0,1,0,0)" fill="#fbfbf8" class="wordmark-text-0" data-fill-palette-color="primary" id="text-0"></path></svg></g></svg></g></svg></g></svg></g><g transform="matrix(1,0,0,1,0,84.08634855163415)"><svg viewBox="0 0 79.0273028967317 79.0273028967317" height="79.0273028967317" width="79.0273028967317"><g><svg></svg></g><g id="icon-0"><svg viewBox="0 0 79.0273028967317 79.0273028967317" height="79.0273028967317" width="79.0273028967317"><g><path d="M0 39.514c0-21.823 17.691-39.514 39.514-39.514 21.823 0 39.514 17.691 39.513 39.514 0 21.823-17.691 39.514-39.513 39.513-21.823 0-39.514-17.691-39.514-39.513zM39.514 56.735c9.511 0 17.221-7.71 17.221-17.221 0-9.511-7.71-17.221-17.221-17.221-9.511 0-17.221 7.71-17.221 17.221 0 9.511 7.71 17.221 17.221 17.221z" data-fill-palette-color="accent" fill="#ffff00" stroke="transparent"></path></g><g transform="matrix(1,0,0,1,50.21753667814176,44.391363083234424)"><svg viewBox="0 0 -21.407770459551827 -9.75542326973715" height="-9.75542326973715" width="-21.407770459551827"><g><svg xmlns="http://www.w3.org/2000/svg" xmlns:xlink="http://www.w3.org/1999/xlink" version="1.1" x="0" y="0" viewBox="5 29.49391886595174 90 41.01258914071542" enable-background="new 0 0 100 100" xml:space="preserve" height="-9.75542326973715" width="-21.407770459551827" class="icon-dxe-0" data-fill-palette-color="accent" id="dxe-0"><g fill="#ffff00" data-fill-palette-color="accent"><path d="M23.943 30.807L5 50.001 23.942 69.193A4.386 4.386 0 0 0 30.2 69.195 4.52 4.52 0 0 0 30.202 62.857L18.193 50.695 14.569 52.984 30.203 37.143A4.5 4.5 0 0 0 31.498 33.975 4.5 4.5 0 0 0 30.201 30.805 4.387 4.387 0 0 0 23.943 30.807" fill="#ffff00" data-fill-palette-color="accent"></path><path d="M76.057 30.808L95 50.001 76.058 69.193A4.386 4.386 0 0 1 69.8 69.195 4.52 4.52 0 0 1 69.798 62.857L81.807 50.696 85.431 52.985 69.796 37.144A4.5 4.5 0 0 1 68.501 33.976 4.5 4.5 0 0 1 69.798 30.806 4.386 4.386 0 0 1 76.057 30.808" fill="#ffff00" data-fill-palette-color="accent"></path><path d="M60.899 32.352A4.5 4.5 0 0 0 58.533 29.876 4.386 4.386 0 0 0 52.708 32.164L38.888 64.226A4.5 4.5 0 0 0 38.84 67.648 4.5 4.5 0 0 0 41.206 70.124 4.386 4.386 0 0 0 47.031 67.836L60.851 35.774A4.5 4.5 0 0 0 60.899 32.352" fill="#ffff00" data-fill-palette-color="accent"></path></g></svg></g></svg></g></svg></g></svg></g></svg></g><defs></defs></svg><rect width="395.52" height="246.3535449766262" fill="none" stroke="none" visibility="hidden"></rect></g></svg></g></svg>